<?xml version="1.0" standalone="no"?>
<!DOCTYPE svg PUBLIC "-//W3C//DTD SVG 20010904//EN"
 "http://www.w3.org/TR/2001/REC-SVG-20010904/DTD/svg10.dtd">
<svg version="1.0" xmlns="http://www.w3.org/2000/svg"
 width="805.000000pt" height="805.000000pt" viewBox="0 0 805.000000 805.000000"
 preserveAspectRatio="xMidYMid meet">
<metadata>
Created by potrace 1.14, written by Peter Selinger 2001-2017
</metadata>
<g transform="translate(0.000000,805.000000) scale(0.100000,-0.100000)"
fill="#000000" stroke="none">
<path d="M3865 7283 c-231 -21 -511 -120 -716 -255 -96 -62 -235 -184 -316
-276 -163 -185 -246 -348 -312 -617 -36 -147 -41 -219 -41 -568 0 -189 -3
-347 -7 -351 -4 -3 -106 92 -227 212 -240 237 -422 412 -529 509 l-69 62 21
61 c41 118 46 321 11 451 -7 24 -30 81 -51 126 -93 192 -250 331 -455 401
-271 93 -582 25 -792 -173 -187 -176 -282 -456 -239 -708 23 -135 44 -188 112
-291 132 -199 265 -305 465 -368 159 -49 420 -14 591 79 12 7 167 -132 489
-442 184 -177 410 -391 502 -476 l167 -154 2 -270 c1 -148 1 -279 0 -290 -1
-11 -52 -69 -114 -129 -62 -60 -191 -186 -287 -280 -96 -94 -242 -234 -324
-311 -83 -77 -251 -238 -375 -358 -124 -120 -245 -230 -270 -245 -135 -77
-283 -210 -364 -326 -122 -175 -327 -562 -327 -618 0 -33 23 -52 57 -45 60 10
266 91 409 161 237 115 331 182 507 359 84 83 207 202 274 262 174 158 623
584 721 683 46 46 85 83 87 81 2 -2 6 -132 10 -289 9 -350 25 -464 89 -623 25
-59 62 -138 85 -175 202 -338 639 -647 1028 -727 291 -60 644 -36 885 61 255
101 488 264 657 459 133 153 206 280 265 460 69 213 70 221 70 537 0 281 1
286 20 276 11 -6 69 -58 130 -117 97 -92 283 -268 731 -690 60 -57 166 -160
235 -230 69 -69 166 -157 215 -194 153 -114 360 -211 560 -262 115 -29 148
-31 165 -10 19 22 4 69 -62 195 -221 421 -365 603 -613 775 -74 52 -158 122
-241 201 -27 27 -153 146 -280 264 -126 118 -281 265 -344 326 -63 60 -198
189 -300 284 -102 96 -191 180 -197 187 -10 9 -13 84 -13 311 l0 299 38 40
c55 58 757 722 1031 975 l84 77 82 -39 c45 -22 120 -50 166 -61 252 -64 562
48 744 269 174 210 230 520 143 786 -94 288 -347 495 -655 537 -155 21 -354
-29 -502 -125 -212 -137 -328 -327 -362 -593 -13 -104 -1 -251 25 -302 9 -16
16 -36 16 -42 0 -11 -801 -809 -819 -816 -3 -2 -6 178 -6 400 l0 402 -28 117
c-48 201 -130 380 -243 531 -142 189 -348 366 -539 464 -97 49 -297 120 -400
142 -121 26 -333 36 -470 24z m395 -150 c340 -53 673 -254 895 -538 64 -81
170 -280 199 -370 58 -185 59 -191 63 -643 3 -233 2 -430 -1 -438 -4 -11 -14
-8 -47 15 -64 47 -181 87 -365 125 -360 74 -603 91 -1154 82 -391 -6 -448 -10
-695 -51 -267 -45 -471 -98 -518 -136 l-27 -20 0 341 c0 187 5 384 11 438 33
307 169 594 379 802 152 151 309 252 515 333 201 79 483 102 745 60z m3030
-203 c186 -62 324 -180 400 -345 97 -208 88 -423 -28 -650 -96 -186 -363 -338
-567 -322 -178 15 -299 71 -431 202 -99 98 -145 176 -180 305 -29 102 -24 272
10 377 32 99 123 241 192 301 90 78 214 132 354 156 53 9 188 -4 250 -24z
m-6215 5 c118 -30 276 -128 344 -213 47 -60 108 -181 127 -252 26 -101 24
-277 -3 -365 -31 -99 -116 -238 -193 -315 -127 -127 -326 -195 -498 -169 -275
41 -488 223 -553 473 -24 92 -26 278 -3 379 47 209 229 396 448 458 79 23 250
25 331 4z m5398 -1114 c21 -27 58 -68 82 -90 25 -23 45 -46 45 -51 0 -5 -43
-48 -96 -97 -125 -114 -441 -413 -659 -623 -94 -91 -199 -189 -233 -218 l-62
-54 -2 131 c-1 72 -2 148 -3 169 0 35 8 45 145 177 80 76 208 201 285 276 206
201 448 429 455 429 3 0 23 -22 43 -49z m-4686 -133 c98 -95 294 -283 434
-416 l256 -244 -1 -164 c0 -90 -4 -164 -8 -164 -11 0 -102 82 -253 229 -234
226 -729 698 -762 725 l-32 27 86 90 c48 49 90 89 94 89 5 0 89 -78 186 -172z
m2633 -458 c151 -11 311 -25 355 -31 135 -19 430 -86 480 -110 57 -27 104 -72
142 -136 l28 -48 0 -585 0 -585 -29 -55 c-84 -163 -147 -191 -556 -244 -564
-74 -1414 -53 -1915 48 -146 29 -203 54 -255 114 -70 79 -70 77 -70 702 0 615
0 620 63 702 42 54 72 71 209 117 138 47 234 64 493 92 405 42 666 47 1055 19z
m-1940 -1670 c0 -163 -2 -182 -19 -197 -10 -10 -68 -65 -127 -123 -147 -143
-451 -431 -604 -572 -69 -64 -140 -133 -159 -155 -18 -21 -51 -57 -72 -80
l-39 -43 0 53 c-1 100 -43 155 -133 172 l-38 7 43 36 c24 20 102 93 173 162
72 69 195 186 275 261 80 75 266 254 414 398 149 143 274 261 278 261 4 0 8
-81 8 -180z m3282 -28 c106 -103 227 -219 268 -258 41 -38 118 -110 170 -160
52 -50 149 -141 215 -202 66 -61 162 -151 214 -200 l93 -89 -53 -19 c-62 -22
-83 -54 -94 -141 l-7 -53 -82 79 c-159 153 -333 319 -491 466 -88 83 -224 213
-302 289 l-143 140 0 168 c0 104 4 168 10 168 5 0 96 -85 202 -188z m-3121
-78 c28 -31 83 -56 154 -72 28 -6 120 -27 205 -46 85 -20 205 -40 265 -46 328
-31 1185 -36 1485 -9 137 12 393 61 500 95 43 13 94 38 115 54 21 17 42 30 46
30 5 0 9 -182 9 -404 0 -447 -3 -478 -64 -660 -85 -254 -214 -427 -462 -620
-281 -219 -504 -291 -899 -291 -228 1 -310 13 -459 71 -219 86 -371 181 -540
337 -169 156 -272 319 -331 522 -49 171 -55 231 -57 663 -2 221 0 402 3 402 3
0 16 -12 30 -26z m-1327 -955 c37 -17 49 -63 33 -125 -48 -183 -254 -354 -610
-504 -54 -23 -101 -39 -104 -36 -10 9 107 238 171 336 113 172 223 270 354
316 74 26 118 30 156 13z m5553 -10 c158 -59 250 -160 438 -481 74 -125 89
-168 60 -168 -39 0 -311 133 -410 200 -98 67 -216 193 -259 277 -16 33 -20 98
-7 143 14 52 85 63 178 29z"/>
<path d="M3965 6905 c-33 -32 -32 -68 1 -94 15 -12 33 -21 40 -21 51 0 96 59
75 99 -25 46 -79 54 -116 16z"/>
<path d="M3634 6700 c-28 -11 -54 -53 -54 -89 0 -36 49 -81 89 -81 34 0 84 49
84 83 0 35 -30 74 -65 86 -17 6 -31 11 -32 10 -1 0 -10 -4 -22 -9z"/>
<path d="M4282 6667 c-48 -51 -9 -137 62 -137 39 0 86 44 86 80 0 67 -102 106
-148 57z"/>
<path d="M3287 6379 c-22 -13 -47 -61 -47 -92 0 -33 46 -77 80 -77 34 0 75 44
85 92 7 28 3 36 -24 60 -32 29 -63 35 -94 17z"/>
<path d="M3952 6364 c-48 -33 -48 -89 -1 -133 40 -37 86 -26 123 29 24 37 20
65 -15 94 -35 30 -74 33 -107 10z"/>
<path d="M4663 6368 c-24 -12 -41 -51 -35 -85 4 -24 55 -73 76 -73 21 0 67 40
77 67 12 31 -10 75 -46 91 -31 14 -43 14 -72 0z"/>
<path d="M3609 6031 c-40 -40 -39 -81 2 -115 42 -35 74 -33 115 8 43 43 44 76
3 110 -41 35 -83 34 -120 -3z"/>
<path d="M4295 6025 c-35 -35 -33 -76 6 -109 40 -34 74 -33 110 3 37 37 40 92
7 115 -35 25 -94 20 -123 -9z"/>
<path d="M5016 6009 c-20 -16 -26 -29 -26 -58 0 -77 88 -113 137 -57 68 79
-28 180 -111 115z"/>
<path d="M2886 5988 c-41 -58 -1 -138 69 -138 75 0 115 95 59 139 -38 30 -107
29 -128 -1z"/>
<path d="M3985 5743 c-53 -13 -81 -83 -51 -129 46 -69 155 -33 156 52 0 48
-55 89 -105 77z"/>
<path d="M4685 5721 c-32 -13 -57 -48 -57 -78 0 -30 50 -83 80 -83 25 0 61 27
82 63 17 28 17 33 4 59 -21 41 -65 56 -109 39z"/>
<path d="M3249 5691 c-35 -35 -38 -77 -8 -115 29 -37 77 -36 124 5 50 44 45
93 -15 124 -43 22 -68 19 -101 -14z"/>
<path d="M7062 6609 c-67 -13 -156 -57 -195 -97 -159 -163 -104 -430 108 -529
164 -76 366 6 447 184 32 69 32 191 0 251 -31 58 -96 128 -146 157 -34 19
-143 48 -165 44 -3 -1 -25 -5 -49 -10z m163 -153 c48 -29 95 -107 95 -159 0
-149 -154 -257 -288 -201 -139 58 -174 223 -69 328 23 23 58 47 77 53 53 18
134 8 185 -21z"/>
<path d="M840 6607 c-75 -22 -117 -46 -164 -96 -74 -80 -91 -121 -91 -226 0
-106 13 -139 86 -219 67 -74 149 -110 246 -110 63 1 82 6 147 38 78 38 114 74
157 156 20 38 24 59 24 140 0 84 -3 102 -28 152 -32 65 -77 107 -155 144 -64
30 -159 39 -222 21z m146 -132 c29 -8 62 -28 81 -47 127 -131 48 -326 -141
-345 -110 -11 -218 86 -218 196 0 95 53 168 145 197 55 17 74 17 133 -1z"/>
<path d="M3157 4860 c-97 -25 -200 -107 -238 -193 -20 -43 -24 -69 -24 -152 0
-93 2 -105 32 -166 33 -67 117 -160 170 -188 17 -9 65 -16 118 -19 119 -5 182
17 266 96 81 74 111 135 117 234 7 126 -49 251 -146 325 -69 52 -213 83 -295
63z m130 -101 c82 -51 86 -176 7 -238 -63 -49 -173 -32 -214 34 -28 45 -27
123 2 160 51 66 139 85 205 44z m147 -314 c38 -35 36 -85 -5 -119 -35 -30 -49
-32 -88 -11 -47 24 -56 83 -20 129 27 35 76 35 113 1z"/>
<path d="M4700 4651 c-169 -52 -296 -235 -219 -317 35 -37 62 -31 128 30 78
72 108 86 178 86 75 -1 125 -24 188 -89 57 -59 91 -66 130 -26 36 35 36 81 2
129 -29 41 -211 173 -255 186 -42 11 -115 12 -152 1z"/>
<path d="M3702 4457 c-50 -53 -13 -199 70 -281 74 -71 144 -100 243 -101 68 0
89 4 137 28 100 49 190 168 204 268 5 39 3 49 -21 77 -43 52 -125 35 -125 -26
0 -119 -101 -212 -216 -199 -77 8 -164 95 -164 164 0 19 -7 47 -15 63 -13 25
-22 30 -54 30 -26 0 -44 -7 -59 -23z"/>
<path d="M3320 3063 c-31 -11 -60 -47 -60 -73 0 -34 47 -80 82 -80 32 0 78 51
78 85 0 45 -58 84 -100 68z"/>
<path d="M4732 3019 c-27 -10 -55 -70 -45 -96 21 -62 79 -79 139 -42 44 27 44
58 2 103 -38 39 -63 49 -96 35z"/>
<path d="M3961 2994 c-60 -50 -28 -134 51 -134 28 0 42 7 62 31 34 40 33 64
-3 100 -36 36 -70 37 -110 3z"/>
<path d="M3619 2691 c-42 -42 -41 -99 2 -135 47 -40 81 -32 119 29 26 43 20
86 -17 115 -36 28 -69 25 -104 -9z"/>
<path d="M4312 2685 c-55 -46 -50 -98 11 -135 69 -43 127 -12 127 67 0 84 -76
121 -138 68z"/>
<path d="M5064 2689 c-35 -13 -74 -67 -74 -104 0 -66 82 -88 140 -38 29 24 32
31 27 66 -8 61 -48 93 -93 76z"/>
<path d="M2894 2642 c-53 -44 -54 -96 -4 -132 45 -32 90 -24 114 20 19 35 19
36 -2 83 -19 42 -24 47 -54 47 -18 -1 -42 -9 -54 -18z"/>
<path d="M3290 2415 c-7 -9 -13 -32 -14 -51 -1 -28 5 -41 26 -56 53 -41 118
-15 118 48 0 58 -95 101 -130 59z"/>
<path d="M3950 2382 c-34 -34 -37 -50 -15 -91 28 -55 104 -60 139 -9 35 50 5
111 -62 124 -26 5 -36 1 -62 -24z"/>
<path d="M4635 2385 c-42 -41 -27 -90 31 -101 51 -9 104 17 104 51 0 36 -42
75 -80 75 -19 0 -40 -9 -55 -25z"/>
<path d="M3100 2118 c41 -45 50 -53 50 -45 0 2 -21 23 -47 47 l-48 45 45 -47z"/>
<path d="M3615 2048 c-20 -23 -25 -38 -20 -57 8 -34 59 -81 89 -81 30 0 76 52
76 85 0 13 -12 37 -26 54 -36 43 -82 43 -119 -1z"/>
<path d="M4345 2050 c-25 -10 -61 -49 -69 -76 -8 -26 26 -71 62 -85 14 -5 38
-7 54 -4 49 11 76 96 44 138 -17 22 -65 37 -91 27z"/>
<path d="M1122 2394 c-77 -38 -252 -233 -252 -281 0 -31 40 -56 76 -47 66 16
174 100 238 182 105 138 73 213 -62 146z"/>
<path d="M6781 2402 c-6 -10 -7 -30 -4 -43 13 -56 145 -202 238 -265 73 -50
135 -44 135 12 0 28 -99 161 -171 231 -76 73 -176 106 -198 65z"/>
</g>
</svg>
